<?xml version="1.0" standalone="no"?>
<!DOCTYPE svg PUBLIC "-//W3C//DTD SVG 20010904//EN"
 "http://www.w3.org/TR/2001/REC-SVG-20010904/DTD/svg10.dtd">
<svg version="1.0" xmlns="http://www.w3.org/2000/svg"
 width="300.000000pt" height="300.000000pt" viewBox="0 0 300.000000 300.000000"
 preserveAspectRatio="xMidYMid meet">
<metadata>
Created by potrace 1.11, written by Peter Selinger 2001-2013
</metadata>
<g transform="translate(0.000000,300.000000) scale(0.100000,-0.100000)"
fill="#000000" stroke="none">
<path d="M0 1500 l0 -1500 1500 0 1500 0 0 1500 0 1500 -1500 0 -1500 0 0
-1500z m1479 1029 c159 -25 305 -101 422 -218 305 -305 305 -787 0 -1092 -254
-254 -634 -301 -946 -117 -90 53 -210 173 -263 263 -184 312 -137 692 117 946
179 178 424 258 670 218z m755 -1438 c74 -36 118 -82 155 -161 21 -45 26 -70
26 -135 0 -71 -4 -89 -33 -147 -59 -120 -161 -183 -297 -183 -91 0 -162 26
-228 84 -84 74 -125 223 -93 333 60 206 278 304 470 209z"/>
<path d="M1242 2082 c-142 -51 -231 -188 -220 -341 9 -122 78 -225 187 -278
49 -24 68 -28 146 -28 78 0 97 4 146 28 66 32 132 99 162 165 17 37 22 66 22
137 0 78 -4 97 -28 146 -32 67 -100 132 -165 162 -67 29 -181 33 -250 9z"/>
</g>
</svg>
